<svg width="120" height="37" viewBox="0 0 120 37" fill="none" xmlns="http://www.w3.org/2000/svg">
<path d="M9.06672 31.4813C6.35157 31.4813 4.23763 30.6919 2.7249 29.1132C1.21217 27.5346 0.455811 25.2652 0.455811 22.3052V10.5244H3.3649V22.1868C3.3649 26.6268 5.27521 28.8468 9.09581 28.8468C10.9576 28.8468 12.3831 28.3042 13.3722 27.2188C14.3613 26.1138 14.8558 24.4364 14.8558 22.1868V10.5244H17.6776V22.3052C17.6776 25.285 16.9213 27.5642 15.4085 29.1428C13.8958 30.7018 11.7819 31.4813 9.06672 31.4813Z" fill="#262136"/>
<path d="M24.7472 31.422C23.4866 31.422 22.2744 31.2543 21.1108 30.9188C19.9472 30.5636 19.0357 30.1196 18.3763 29.5868L19.5399 27.3372C20.2187 27.8306 21.0429 28.2252 22.0126 28.5212C22.9823 28.8172 23.9617 28.9652 24.9508 28.9652C27.3945 28.9652 28.6163 28.2548 28.6163 26.834C28.6163 26.3604 28.4514 25.9855 28.1217 25.7092C27.792 25.433 27.3751 25.2356 26.8708 25.1172C26.386 24.9791 25.6878 24.8311 24.7763 24.6732C23.5351 24.4759 22.5169 24.249 21.7217 23.9924C20.946 23.7359 20.2769 23.3018 19.7144 22.69C19.152 22.0783 18.8708 21.2199 18.8708 20.1148C18.8708 18.694 19.4526 17.5594 20.6163 16.7108C21.7799 15.8426 23.3411 15.4084 25.2999 15.4084C26.3278 15.4084 27.3557 15.5367 28.3835 15.7932C29.4114 16.0498 30.2551 16.3951 30.9144 16.8292L29.7217 19.0788C28.4611 18.25 26.9775 17.8356 25.2708 17.8356C24.0878 17.8356 23.186 18.033 22.5654 18.4276C21.9447 18.8223 21.6344 19.3452 21.6344 19.9964C21.6344 20.5095 21.809 20.914 22.1581 21.21C22.5072 21.506 22.9338 21.7231 23.4381 21.8612C23.9617 21.9994 24.689 22.1572 25.6199 22.3348C26.8611 22.5519 27.8599 22.7887 28.6163 23.0452C29.392 23.282 30.0514 23.6964 30.5945 24.2884C31.1375 24.8804 31.409 25.7092 31.409 26.7748C31.409 28.1956 30.8078 29.3303 29.6054 30.1789C28.4223 31.0077 26.8029 31.422 24.7472 31.422Z" fill="#262136"/>
<path d="M47.6701 23.4892C47.6701 23.7063 47.6507 23.9924 47.6119 24.3476H35.1029C35.2774 25.729 35.8689 26.8439 36.8774 27.6924C37.9053 28.5212 39.1756 28.9356 40.6883 28.9356C42.5307 28.9356 44.0144 28.3042 45.1392 27.0412L46.681 28.8764C45.9829 29.7052 45.1101 30.3367 44.0629 30.7708C43.035 31.205 41.881 31.422 40.601 31.422C38.9719 31.422 37.5271 31.0866 36.2665 30.4156C35.0059 29.725 34.0265 28.7679 33.3283 27.5444C32.6495 26.321 32.3101 24.9396 32.3101 23.4004C32.3101 21.881 32.6398 20.5095 33.2992 19.286C33.978 18.0626 34.8992 17.1154 36.0629 16.4444C37.2459 15.7538 38.5744 15.4084 40.0483 15.4084C41.5223 15.4084 42.8313 15.7538 43.9756 16.4444C45.1392 17.1154 46.041 18.0626 46.681 19.286C47.3404 20.5095 47.6701 21.9106 47.6701 23.4892ZM40.0483 17.806C38.7101 17.806 37.5853 18.2204 36.6738 19.0492C35.7816 19.878 35.258 20.9634 35.1029 22.3052H44.9938C44.8386 20.9831 44.3053 19.9076 43.3938 19.0788C42.5016 18.2303 41.3865 17.806 40.0483 17.806Z" fill="#262136"/>
<path d="M51.8972 18.1908C52.382 17.2831 53.0996 16.5924 54.0499 16.1188C55.0002 15.6452 56.1541 15.4084 57.5117 15.4084V18.1612C57.3566 18.1415 57.1432 18.1316 56.8717 18.1316C55.359 18.1316 54.1663 18.5954 53.2935 19.5228C52.4402 20.4306 52.0135 21.733 52.0135 23.43V31.2444H49.2208V15.5564H51.8972V18.1908Z" fill="#262136"/>
<path d="M58.6508 10.5244H61.5599V28.6692H72.5854V31.2444H58.6508V10.5244Z" fill="#262136"/>
<path d="M87.7054 23.4892C87.7054 23.7063 87.686 23.9924 87.6472 24.3476H75.1381C75.3126 25.729 75.9041 26.8439 76.9126 27.6924C77.9405 28.5212 79.2108 28.9356 80.7235 28.9356C82.566 28.9356 84.0496 28.3042 85.1744 27.0412L86.7163 28.8764C86.0181 29.7052 85.1454 30.3367 84.0981 30.7708C83.0702 31.205 81.9163 31.422 80.6363 31.422C79.0072 31.422 77.5623 31.0866 76.3017 30.4156C75.0411 29.725 74.0617 28.7679 73.3635 27.5444C72.6848 26.321 72.3454 24.9396 72.3454 23.4004C72.3454 21.881 72.6751 20.5095 73.3344 19.286C74.0132 18.0626 74.9344 17.1154 76.0981 16.4444C77.2811 15.7538 78.6096 15.4084 80.0835 15.4084C81.5575 15.4084 82.8666 15.7538 84.0108 16.4444C85.1744 17.1154 86.0763 18.0626 86.7163 19.286C87.3757 20.5095 87.7054 21.9106 87.7054 23.4892ZM80.0835 17.806C78.7454 17.806 77.6205 18.2204 76.709 19.0492C75.8169 19.878 75.2932 20.9634 75.1381 22.3052H85.029C84.8738 20.9831 84.3405 19.9076 83.429 19.0788C82.5369 18.2303 81.4217 17.806 80.0835 17.806Z" fill="#262136"/>
<path d="M95.1615 15.4084C97.2948 15.4084 98.9239 15.9412 100.049 17.0068C101.193 18.0724 101.765 19.661 101.765 21.7724V31.2444H99.1179V29.1724C98.6524 29.9026 97.9833 30.465 97.1106 30.8596C96.2573 31.2346 95.2391 31.422 94.056 31.422C92.33 31.422 90.9433 30.9978 89.896 30.1492C88.8682 29.3007 88.3542 28.1858 88.3542 26.8044C88.3542 25.4231 88.8488 24.318 89.8379 23.4892C90.827 22.6407 92.3979 22.2164 94.5506 22.2164H98.9724V21.654C98.9724 20.4306 98.6233 19.4932 97.9251 18.842C97.227 18.1908 96.1991 17.8652 94.8415 17.8652C93.93 17.8652 93.0379 18.0231 92.1651 18.3388C91.2924 18.6348 90.5554 19.0394 89.9542 19.5524L88.7906 17.4212C89.5857 16.77 90.536 16.2767 91.6415 15.9412C92.747 15.586 93.9203 15.4084 95.1615 15.4084ZM94.5215 29.2316C95.5882 29.2316 96.5094 28.9948 97.2851 28.5212C98.0609 28.0279 98.6233 27.3372 98.9724 26.4492V24.2588H94.667C92.3009 24.2588 91.1179 25.0679 91.1179 26.686C91.1179 27.4754 91.4185 28.097 92.0197 28.5508C92.6209 29.0047 93.4548 29.2316 94.5215 29.2316Z" fill="#262136"/>
<path d="M111.908 15.4084C113.401 15.4084 114.739 15.7439 115.922 16.4148C117.105 17.0858 118.027 18.0231 118.686 19.2268C119.365 20.4306 119.704 21.8218 119.704 23.4004C119.704 24.9791 119.365 26.3802 118.686 27.6036C118.027 28.8074 117.105 29.7447 115.922 30.4156C114.739 31.0866 113.401 31.422 111.908 31.422C110.802 31.422 109.784 31.205 108.853 30.7708C107.942 30.3367 107.166 29.7052 106.526 28.8764V36.9869H103.733V15.5564H106.41V18.0428C107.03 17.1746 107.816 16.5234 108.766 16.0892C109.716 15.6354 110.764 15.4084 111.908 15.4084ZM111.675 28.9356C112.664 28.9356 113.547 28.7087 114.322 28.2549C115.118 27.7812 115.738 27.13 116.184 26.3012C116.65 25.4527 116.882 24.4858 116.882 23.4004C116.882 22.3151 116.65 21.358 116.184 20.5292C115.738 19.6807 115.118 19.0295 114.322 18.5756C113.547 18.1218 112.664 17.8948 111.675 17.8948C110.705 17.8948 109.823 18.1316 109.028 18.6052C108.252 19.0591 107.632 19.7004 107.166 20.5292C106.72 21.358 106.497 22.3151 106.497 23.4004C106.497 24.4858 106.72 25.4527 107.166 26.3012C107.612 27.13 108.233 27.7812 109.028 28.2549C109.823 28.7087 110.705 28.9356 111.675 28.9356Z" fill="#262136"/>
<path d="M37.5759 8.63334C61.3776 -8.42777 81.2123 8.63334 81.2123 8.63334" stroke="#5552FF" stroke-width="2" stroke-linecap="round" stroke-linejoin="round"/>
</svg>
